<?xml version="1.0" standalone="no"?>
<!DOCTYPE svg PUBLIC "-//W3C//DTD SVG 20010904//EN"
 "http://www.w3.org/TR/2001/REC-SVG-20010904/DTD/svg10.dtd">
<svg version="1.0" xmlns="http://www.w3.org/2000/svg"
 width="512.000000pt" height="512.000000pt" viewBox="0 0 512.000000 512.000000"
 preserveAspectRatio="xMidYMid meet">
<metadata>
Created by potrace 1.14, written by Peter Selinger 2001-2017
</metadata>
<g transform="translate(0.000000,512.000000) scale(0.100000,-0.100000)"
fill="#000000" stroke="none">
<path d="M2309 5106 c-142 -40 -260 -134 -323 -259 -43 -85 -46 -98 -53 -202
-5 -84 -2 -98 103 -575 20 -91 38 -177 40 -191 3 -14 13 -60 23 -103 17 -71
17 -77 2 -72 -9 3 -43 15 -76 27 -77 28 -203 30 -293 4 -62 -17 -149 -68 -203
-117 -33 -30 -109 -137 -109 -155 0 -15 -26 -18 -35 -4 -8 14 -88 57 -141 76
-65 22 -205 28 -269 11 -160 -42 -261 -125 -337 -276 l-43 -85 0 -830 c0 -456
3 -857 8 -890 60 -478 334 -913 752 -1195 140 -94 402 -205 532 -226 21 -3 41
-8 44 -9 3 -2 28 -7 55 -11 27 -3 72 -10 99 -14 67 -11 366 -5 435 9 30 6 66
12 80 15 99 17 298 85 404 138 396 199 706 554 845 965 82 242 90 329 91 926
0 290 4 506 10 516 5 10 11 29 14 42 3 13 39 132 81 264 42 132 101 319 131
415 31 96 80 254 111 350 30 96 65 209 78 250 13 41 38 120 55 175 100 315
111 360 109 440 -4 140 -50 246 -149 345 -195 195 -503 194 -699 -1 -75 -75
-101 -129 -179 -369 -80 -245 -213 -652 -266 -815 -20 -60 -36 -116 -36 -124
0 -49 -34 62 -65 214 -2 11 -16 72 -30 135 -15 63 -28 122 -30 130 -2 8 -27
115 -55 237 -28 123 -53 231 -55 240 -37 170 -48 216 -62 258 -50 157 -156
266 -316 327 -64 25 -212 32 -278 14z m216 -217 c54 -22 123 -81 148 -128 25
-46 36 -90 237 -971 49 -217 102 -444 116 -503 14 -60 23 -111 20 -114 -3 -3
-137 -6 -297 -7 -249 -1 -292 1 -299 14 -4 8 -26 103 -49 210 -49 225 -82 376
-182 835 -39 182 -73 354 -74 382 -7 124 62 230 179 277 63 26 143 27 201 5z
m1607 -115 c59 -19 132 -88 160 -151 11 -25 22 -72 23 -103 2 -58 -2 -76 -108
-410 -25 -80 -115 -367 -200 -638 -86 -272 -157 -495 -159 -498 -3 -2 -27 18
-55 45 -104 100 -208 142 -363 147 -58 2 -112 3 -120 3 -13 1 -5 35 41 174 71
212 325 991 375 1147 20 63 45 131 54 150 38 74 119 134 203 149 52 9 88 5
149 -15z m-2136 -1260 c52 -25 112 -87 136 -140 20 -47 37 -203 21 -205 -4 0
-62 -1 -128 -3 -105 -2 -127 -5 -177 -28 -73 -34 -132 -95 -158 -166 -53 -141
-1 -370 120 -530 22 -29 40 -55 40 -58 0 -11 -62 5 -103 26 -73 38 -120 94
-147 175 -15 44 -19 658 -6 730 34 178 235 278 402 199z m-778 -201 c63 -32
96 -68 130 -143 l25 -54 0 -346 c0 -368 -2 -388 -51 -462 -52 -79 -149 -127
-248 -123 -104 5 -194 65 -246 165 -23 45 -23 47 -23 415 0 368 0 370 23 415
78 150 244 206 390 133z m2348 -393 c65 -32 105 -73 140 -145 18 -38 19 -68
19 -640 0 -543 -2 -609 -19 -700 -17 -93 -55 -233 -76 -280 -110 -251 -190
-370 -354 -530 -356 -347 -870 -487 -1352 -369 -523 127 -933 530 -1074 1055
-34 124 -42 213 -45 476 l-4 272 37 -23 c89 -55 247 -81 353 -56 137 32 283
141 337 253 l24 47 26 -19 c131 -92 303 -118 453 -68 63 22 76 23 103 12 44
-18 132 -35 198 -38 60 -2 71 -9 41 -26 -28 -15 -149 -140 -196 -204 -88 -117
-156 -269 -192 -427 -24 -104 -30 -422 -9 -465 37 -78 145 -78 187 0 6 11 11
90 13 180 2 173 4 192 35 304 95 352 429 619 796 635 84 4 118 21 138 71 24
55 -2 115 -57 134 -20 7 -165 11 -407 11 -302 0 -388 3 -434 15 -202 52 -349
226 -362 427 -4 61 -2 71 21 97 16 19 36 31 57 33 18 2 371 2 786 1 l753 -1
64 -32z"/>
</g>
</svg>
